<?xml version="1.0" encoding="utf-8"?>
<!-- Generator: Adobe Illustrator 23.0.6, SVG Export Plug-In . SVG Version: 6.00 Build 0)  -->
<svg version="1.1" xmlns="http://www.w3.org/2000/svg" xmlns:xlink="http://www.w3.org/1999/xlink" x="0px" y="0px"
	 viewBox="0 0 100 100" style="enable-background:new 0 0 100 100;" xml:space="preserve">
<style type="text/css">
	.st0{display:none;}
	.st1{display:inline;}
	.st2{fill:#FFFFFF;}
	.st3{fill:none;stroke:#000000;stroke-width:5;stroke-miterlimit:10;}
	.st4{display:inline;fill:none;stroke:#000000;stroke-width:5;stroke-miterlimit:10;}
	.st5{fill:#465775;}
	.st6{display:inline;fill:#151726;}
	.st7{display:inline;fill:#4E5BB7;}
	.st8{display:inline;fill:#F26DF9;}
	.st9{display:inline;fill:#F45B69;}
	.st10{display:inline;fill:#FB3640;}
	.st11{display:inline;fill:#56E39F;}
	.st12{display:inline;fill:#7AFDD6;}
	.st13{display:inline;fill:#77FF94;}
	.st14{fill:#FE8A34;}
	.st15{display:none;fill:#151726;}
	.st16{fill:#F78C3A;}
	.st17{fill:#4E5BB7;}
	.st18{display:inline;fill:none;}
	.st19{display:inline;fill:#8552A8;}
	.st20{display:inline;fill:#9D4DA0;}
	.st21{fill:none;}
	.st22{fill:#8F4D9E;}
	.st23{display:none;fill:none;stroke:#FFFFFF;stroke-width:3;stroke-linecap:round;stroke-miterlimit:10;}
	.st24{display:inline;fill:none;stroke:#FFFFFF;stroke-width:3;stroke-linecap:round;stroke-miterlimit:10;}
	.st25{fill:url(#SVGID_1_);}
	.st26{fill:url(#SVGID_2_);}
</style>
<g id="Ebene_1" class="st0">
	<g class="st1">
		<path d="M46,74.5v7l-23-15l23-15v7h43.09C89.68,55.76,90,52.92,90,50c0-22.09-17.91-40-40-40c-12.86,0-24.29,6.07-31.61,15.5H54
			v-7l23,15l-23,15v-7H10.91C10.32,44.24,10,47.08,10,50c0,22.09,17.91,40,40,40c12.86,0,24.29-6.07,31.61-15.5H46z"/>
	</g>
</g>
<g id="Ebene_2" class="st0">
	<g class="st1">
		<circle class="st2" cx="50" cy="50" r="39.5"/>
		<path d="M50,11c21.5,0,39,17.5,39,39S71.5,89,50,89S11,71.5,11,50S28.5,11,50,11 M50,10c-22.09,0-40,17.91-40,40s17.91,40,40,40
			s40-17.91,40-40S72.09,10,50,10L50,10z"/>
	</g>
	<g class="st1">
		<polygon class="st2" points="53.5,42 2.5,42 2.5,25 53.5,25 53.5,18.4 78.05,33.5 53.5,48.6 		"/>
		<path d="M54,19.29L77.09,33.5L54,47.71V42.5v-1h-1H3v-16h50h1v-1V19.29 M53,17.5v7H2v18h51v7l26-16L53,17.5L53,17.5z"/>
	</g>
	<g class="st1">
		<polygon class="st2" points="21.95,66.5 46.5,51.39 46.5,58 97.5,58 97.5,75 46.5,75 46.5,81.61 		"/>
		<path d="M46,52.29v5.21v1h1h50v16H47h-1v1v5.21L22.91,66.5L46,52.29 M47,50.5l-26,16l26,16v-7h51v-18H47V50.5L47,50.5z"/>
	</g>
</g>
<g id="Ebene_5" class="st0">
	<g class="st1">
		<circle class="st2" cx="50" cy="50" r="39.5"/>
		<path d="M50,11c21.5,0,39,17.5,39,39S71.5,89,50,89S11,71.5,11,50S28.5,11,50,11 M50,10c-22.09,0-40,17.91-40,40s17.91,40,40,40
			s40-17.91,40-40S72.09,10,50,10L50,10z"/>
	</g>
	<g class="st1">
		<ellipse class="st2" cx="50" cy="68" rx="34.5" ry="9.61"/>
		<path d="M50,58.89c20.04,0,34,4.8,34,9.11s-13.96,9.11-34,9.11S16,72.31,16,68S29.96,58.89,50,58.89 M50,57.89
			c-19.33,0-35,4.53-35,10.11s15.67,10.11,35,10.11S85,73.58,85,68S69.33,57.89,50,57.89L50,57.89z"/>
	</g>
	<g class="st1">
		<path d="M50,50c21.85,0,37.08,5.27,37.08,10c0,2.38-3.9,4.93-10.43,6.82C69.54,68.87,60.08,70,50,70c-21.85,0-37.08-5.27-37.08-10
			c0-2.38,3.9-4.93,10.43-6.82C30.46,51.13,39.92,50,50,50 M50,49c-21.03,0-38.08,4.92-38.08,11S28.97,71,50,71s38.08-4.92,38.08-11
			S71.03,49,50,49L50,49z"/>
	</g>
	<g class="st1">
		<polygon class="st2" points="30.99,41.5 69.01,41.5 50,67.16 		"/>
		<path d="M68.01,42L50,66.32L31.99,42H68.01 M70,41H30l20,27L70,41L70,41z"/>
	</g>
</g>
<g id="Ebene_6" class="st0">
	<g class="st1">
		<circle class="st2" cx="50" cy="50" r="37.5"/>
		<path d="M50,15c19.3,0,35,15.7,35,35S69.3,85,50,85S15,69.3,15,50S30.7,15,50,15 M50,10c-22.09,0-40,17.91-40,40s17.91,40,40,40
			s40-17.91,40-40S72.09,10,50,10L50,10z"/>
	</g>
	<g class="st1">
		<line class="st3" x1="20" y1="45" x2="80" y2="45"/>
	</g>
	<polyline class="st4" points="22,53 34,65 46,53 	"/>
	<polyline class="st4" points="54,53 66,65 78,53 	"/>
</g>
<g id="Ebene_4" class="st0">
	<g class="st1">
		<g>
			<path class="st2" d="M28.62,83.21C18.4,76.61,11.73,65.57,10.67,53.5h35.02L28.62,83.21z"/>
			<path d="M44.83,54L28.45,82.5C18.76,76.06,12.4,65.53,11.22,54H44.83 M46.55,53H10.12c0.97,13.04,8.19,24.34,18.67,30.91
				L46.55,53L46.55,53z"/>
		</g>
		<g>
			<path class="st2" d="M54.31,53.5h35.02c-1.06,12.07-7.74,23.11-17.96,29.71L54.31,53.5z"/>
			<path d="M88.78,54c-1.18,11.53-7.55,22.06-17.24,28.5L55.17,54H88.78 M89.88,53H53.45l17.76,30.91
				C81.69,77.34,88.91,66.04,89.88,53L89.88,53z"/>
		</g>
		<g>
			<path class="st2" d="M10.67,46.5c1.78-20.23,18.95-36,39.33-36s37.55,15.77,39.33,36H10.67z"/>
			<path d="M50,11c9.91,0,19.35,3.72,26.59,10.47c6.94,6.47,11.24,15.15,12.2,24.53H50H11.22c0.96-9.38,5.26-18.05,12.2-24.53
				C30.65,14.72,40.09,11,50,11 M50,10c-21.08,0-38.34,16.31-39.88,37H50h39.88C88.34,26.31,71.08,10,50,10L50,10z"/>
		</g>
		<g>
			<polygon class="st2" points="47.42,52.5 50,48 52.58,52.5 			"/>
			<path d="M50,49.01L51.72,52H50h-1.72L50,49.01 M50,47l-3.45,6H50h3.45L50,47L50,47z"/>
		</g>
		<g>
			<path class="st2" d="M23.86,93.5l5.11-8.89C35.3,88.46,42.56,90.5,50,90.5s14.7-2.04,21.03-5.89l5.11,8.89H23.86z"/>
			<path d="M70.85,85.3l4.42,7.7H24.73l4.42-7.7C35.45,89.03,42.64,91,50,91S64.55,89.03,70.85,85.3 M71.21,83.91
				C65.06,87.77,57.79,90,50,90s-15.06-2.23-21.21-6.09L23,94h54L71.21,83.91L71.21,83.91z"/>
		</g>
	</g>
</g>
<g id="Ebene_3" class="st0">
	<g class="st1">
		<path class="st2" d="M50,89.5c-21.78,0-39.5-17.72-39.5-39.5c0-1.98,0.15-4,0.46-6h67.41L47.5,17.92V28.5H16.87
			c7.33-11.29,19.65-18,33.13-18c21.78,0,39.5,17.72,39.5,39.5c0,1.62-0.11,3.31-0.32,5H21.74L50.5,82.16V71.5h32.63
			C75.81,82.79,63.49,89.5,50,89.5z"/>
		<path d="M50,11c21.5,0,39,17.5,39,39c0,1.47-0.09,2.98-0.27,4.5H23h-2.52l1.83,1.73l27,25.5L51,83.32V81v-9h31.2
			C74.91,82.68,63,89,50,89c-21.5,0-39-17.5-39-39c0-1.82,0.13-3.66,0.39-5.5H77h2.73l-2.09-1.76l-29-24.5L47,16.85V19v9H17.8
			C25.09,17.32,37,11,50,11 M50,10c-14.39,0-27,7.6-34.04,19H48V19l29,24.5H10.53C10.19,45.62,10,47.79,10,50
			c0,22.09,17.91,40,40,40c14.39,0,27-7.6,34.04-19H50v10L23,55.5h66.61C89.86,53.7,90,51.87,90,50C90,27.91,72.09,10,50,10L50,10z"
			/>
	</g>
</g>
<g id="Ebene_7" class="st0">
	<rect x="0" y="0" class="st5" width="100" height="100"/>
	<rect x="0" y="0" class="st6" width="100" height="100"/>
	<g>
		<path class="st7" d="M86.08,62.5c11.91-6.88,11.91-18.12,0-25l-43.3-25C30.88,5.62,21.13,11.25,21.13,25v50
			c0,13.75,9.74,19.38,21.65,12.5L86.08,62.5z"/>
	</g>
	<g>
		<path class="st8" d="M13.92,37.5c-11.91,6.88-11.91,18.12,0,25l43.3,25c11.91,6.88,21.65,1.25,21.65-12.5V25
			c0-13.75-9.74-19.38-21.65-12.5L13.92,37.5z"/>
	</g>
	<g>
		<path class="st9" d="M13.92,37.5c-11.91,6.88-11.91,18.12,0,25l43.3,25c11.91,6.88,21.65,1.25,21.65-12.5V25
			c0-13.75-9.74-19.38-21.65-12.5L13.92,37.5z"/>
	</g>
	<g>
		<path class="st10" d="M13.92,37.5c-11.91,6.88-11.91,18.12,0,25l43.3,25c11.91,6.88,21.65,1.25,21.65-12.5V25
			c0-13.75-9.74-19.38-21.65-12.5L13.92,37.5z"/>
	</g>
	<g>
		<path class="st11" d="M13.92,37.5c-11.91,6.88-11.91,18.12,0,25l43.3,25c11.91,6.88,21.65,1.25,21.65-12.5V25
			c0-13.75-9.74-19.38-21.65-12.5L13.92,37.5z"/>
	</g>
	<g>
		<path class="st12" d="M13.92,37.5c-11.91,6.88-11.91,18.12,0,25l43.3,25c11.91,6.88,21.65,1.25,21.65-12.5V25
			c0-13.75-9.74-19.38-21.65-12.5L13.92,37.5z"/>
	</g>
	<g>
		<path class="st13" d="M13.92,37.5c-11.91,6.88-11.91,18.12,0,25l43.3,25c11.91,6.88,21.65,1.25,21.65-12.5V25
			c0-13.75-9.74-19.38-21.65-12.5L13.92,37.5z"/>
	</g>
	<g class="st1">
		<path class="st14" d="M13.92,37.5c-11.91,6.88-11.91,18.12,0,25l43.3,25c11.91,6.88,21.65,1.25,21.65-12.5V25
			c0-13.75-9.74-19.38-21.65-12.5L13.92,37.5z"/>
	</g>
</g>
<g id="Ebene_8">
	<rect x="0" y="0" class="st15" width="100" height="100"/>
	<g>
		<path class="st16" d="M13.92,37.5c-11.91,6.88-11.91,18.12,0,25l43.3,25c11.91,6.88,21.65,1.25,21.65-12.5V25
			c0-13.75-9.74-19.38-21.65-12.5L13.92,37.5z"/>
	</g>
	<g>
		<path class="st17" d="M86.08,62.5c11.91-6.88,11.91-18.12,0-25l-43.3-25C30.88,5.62,21.13,11.25,21.13,25v50
			c0,13.75,9.74,19.38,21.65,12.5L86.08,62.5z"/>
	</g>
	<g class="st0">
		<polygon class="st18" points="78.87,0 50,16.67 78.87,33.33 		"/>
		<polygon class="st18" points="-7.73,50 21.13,66.67 21.13,33.33 		"/>
		<polygon class="st18" points="50,83.33 78.87,100 78.87,66.67 		"/>
		<polygon class="st19" points="78.87,33.33 50,16.67 21.13,33.33 21.13,66.67 50,83.33 78.87,66.67 		"/>
	</g>
	<g class="st0">
		<polygon class="st18" points="78.87,0 50,16.67 78.87,33.33 		"/>
		<polygon class="st18" points="-7.73,50 21.13,66.67 21.13,33.33 		"/>
		<polygon class="st18" points="50,83.33 78.87,100 78.87,66.67 		"/>
		<polygon class="st20" points="78.87,33.33 50,16.67 21.13,33.33 21.13,66.67 50,83.33 78.87,66.67 		"/>
	</g>
	<g>
		<polygon class="st21" points="78.87,0 50,16.67 78.87,33.33 		"/>
		<polygon class="st21" points="-7.73,50 21.13,66.67 21.13,33.33 		"/>
		<polygon class="st21" points="50,83.33 78.87,100 78.87,66.67 		"/>
		<polygon class="st22" points="78.87,33.33 50,16.67 21.13,33.33 21.13,66.67 50,83.33 78.87,66.67 		"/>
	</g>
	<line class="st23" x1="50" y1="50" x2="50" y2="75"/>
	<line class="st23" x1="50" y1="50" x2="28.35" y2="37.5"/>
	<g class="st0">
		<polyline class="st24" points="50,50 74.96,35.81 75.5,35.5 		"/>
		<polyline class="st24" points="50,57.01 74.96,42.81 75.5,42.5 		"/>
		<polyline class="st24" points="50,64.01 74.96,49.81 75.5,49.5 		"/>
		<polyline class="st24" points="50,71.02 74.95,56.81 75.5,56.5 		"/>
		<polyline class="st24" points="50,78.03 74.95,63.81 75.5,63.5 		"/>
	</g>
	<linearGradient id="SVGID_1_" gradientUnits="userSpaceOnUse" x1="36.5849" y1="62.6471" x2="45.4151" y2="47.3529">
		<stop  offset="0" style="stop-color:#FFFFFF"/>
		<stop  offset="1" style="stop-color:#DCDCDC"/>
	</linearGradient>
	<polygon class="st25" points="50,70 32,60 32,40 50,50 	"/>
	<linearGradient id="SVGID_2_" gradientUnits="userSpaceOnUse" x1="63.4151" y1="62.6471" x2="54.5849" y2="47.3529">
		<stop  offset="0" style="stop-color:#C8C8C8"/>
		<stop  offset="1" style="stop-color:#A5A5A5"/>
	</linearGradient>
	<polygon class="st26" points="50,70 68,60 68,40 50,50 	"/>
	<polygon class="st2" points="68,40 50,50 32,40 50,30 	"/>
</g>
</svg>
